<?xml version="1.0" encoding="UTF-8"?>
<svg width="743px" height="113px" viewBox="0 0 743 113" version="1.1" xmlns="http://www.w3.org/2000/svg" xmlns:xlink="http://www.w3.org/1999/xlink">
    <title>FireBlocks Navy</title>
    <g id="FireBlocks-Navy" stroke="none" stroke-width="1" fill="none" fill-rule="evenodd">
        <g id="Brand/Logomark" fill="#002E7F">
            <g id="Brand/Wordmark" transform="translate(163.222222, 12.555556)">
                <path d="M236.050722,8.83584667 L236.050722,33.7787133 L236.2717,33.7787133 C240.344722,28.3622467 246.160456,25.6527578 253.7189,25.6527578 C257.091322,25.6527578 260.282944,26.2102244 263.286233,27.3226467 C266.292033,28.4350689 268.963856,30.1124911 271.296678,32.3574244 C273.624478,34.5998467 275.450056,37.4022467 276.765878,40.7671356 C278.086722,44.1295133 278.742122,48.0142022 278.742122,52.4186911 C278.742122,57.3831578 277.843144,61.9960689 276.035144,66.2574244 C274.227144,70.5212911 271.4147,73.9338911 267.600322,76.5027578 C263.783433,79.0691133 259.047478,80.3573133 253.389944,80.3573133 C245.2213,80.3573133 239.405567,77.7231578 235.937722,72.4598689 L235.719256,72.4598689 L235.719256,78.99378 L220.205611,78.99378 L220.205611,8.83584667 L236.050722,8.83584667 Z M176.526591,24.1880267 C206.67248,24.1880267 204.093569,56.9580267 204.093569,56.9580267 L204.093569,56.9580267 L162.825969,56.9580267 C164.495858,63.4793822 170.042902,67.7658489 177.686724,67.7658489 C186.894969,67.7658489 191.856924,62.1359378 191.856924,62.1359378 L191.856924,62.1359378 L200.618191,71.1960267 C196.108236,75.7285822 190.051436,79.8694044 177.553636,79.8694044 C158.228124,79.8694044 147.922524,66.9246267 147.922524,53.2039156 C147.922524,39.4832044 155.654236,24.1880267 176.526591,24.1880267 Z M421.937982,23.8211533 C432.630293,23.8211533 441.991716,29.2074867 447.167116,37.2807089 L447.167116,37.2807089 L434.423227,44.8642644 C432.03516,40.2739533 427.336871,37.1526422 421.937982,37.1526422 C414.110849,37.1526422 407.765271,43.70162 407.765271,51.7798644 C407.765271,59.8555978 414.110849,66.4070867 421.937982,66.4070867 C427.088271,66.4070867 431.58316,63.5619978 434.066649,59.31822 L434.066649,59.31822 L446.865782,66.7259978 C441.635138,74.5455978 432.431916,79.7410867 421.937982,79.7410867 C405.643382,79.7410867 392.434938,67.2206867 392.434938,51.7798644 C392.434938,36.3365311 405.643382,23.8211533 421.937982,23.8211533 Z M551.898027,24.1641711 C564.867916,24.1641711 573.111893,29.1688156 573.111893,29.1688156 L573.111893,29.1688156 L567.785827,40.7324822 C550.524449,31.6723933 542.70736,38.0581489 542.70736,41.2497711 C542.70736,44.4439044 545.798538,44.7025489 557.821738,46.9474822 C569.847449,49.1924156 575.43216,54.2799267 575.43216,62.4787044 C575.43216,70.6774822 568.47136,79.7400822 551.468627,79.7400822 C535.555797,79.7400822 527.767305,74.9054748 526.828572,74.2816544 L526.774676,74.2454181 C526.745965,74.2258576 526.731671,74.2156378 526.731671,74.2156378 L526.731671,74.2156378 L531.884471,62.7373489 C545.198382,71.28266 560.31276,68.5179267 560.31276,63.4304156 C560.31276,59.5187595 555.042848,58.7643096 549.485234,58.1160597 L548.855109,58.0429626 C547.383199,57.8726964 545.904332,57.7018069 544.510338,57.47406 C537.639938,56.3515933 527.419716,52.6426822 527.419716,41.9403267 C527.419716,31.2404822 538.930649,24.1641711 551.898027,24.1641711 Z M475.964287,5.18067333 L475.964287,47.5531622 L498.509042,25.6311622 L516.933064,25.6311622 L494.589198,47.3572956 L519.122753,79.7405844 L500.829309,79.7405844 L484.052576,57.6026289 L475.964287,65.4649178 L475.964287,79.7405844 L460.890087,79.7405844 L460.890087,5.18067333 L475.964287,5.18067333 Z M351.885264,23.8186422 C368.174842,23.8186422 381.388309,36.3390422 381.388309,51.7773533 C381.388309,67.2206867 368.174842,79.7385756 351.885264,79.7385756 C335.585642,79.7385756 322.38222,67.2206867 322.38222,51.7773533 C322.38222,36.3390422 335.585642,23.8186422 351.885264,23.8186422 Z M84.0094733,25.37302 L84.0094733,79.2237978 L67.6470733,79.2237978 L67.6470733,25.37302 L84.0094733,25.37302 Z M52.9543111,9.06234889 L52.9543111,22.5244156 L16.3649111,22.5244156 L16.3649111,40.38846 L48.7004889,40.38846 L48.7004889,53.72246 L16.3649111,53.72246 L16.3649111,79.2227933 L-8.06071259e-14,79.2227933 L-8.06071259e-14,9.06234889 L52.9543111,9.06234889 Z M118.929487,32.1022956 C118.929487,32.1022956 124.727642,22.9116289 136.708153,24.33794 L136.708153,24.33794 L136.708153,39.3518733 L136.708153,39.3518733 L136.692708,39.347998 C136.190949,39.2240608 123.600254,36.2588373 118.929487,49.5796289 L118.929487,49.5796289 L118.929487,79.2207844 L103.340509,79.2207844 L103.340509,25.3725178 L118.243953,25.3725178 L118.929487,31.7155844 Z M306.785207,4.92002 L306.785207,78.8320644 L290.29474,78.8320644 L290.29474,4.92002 L306.785207,4.92002 Z M248.952811,37.4851133 C239.9103,37.4851133 235.387789,43.0547578 235.387789,54.1990689 C235.387789,58.4227578 236.552944,61.9659356 238.880744,64.8286022 C241.211056,67.6887578 244.721589,69.1200911 249.419878,69.1200911 C252.551233,69.1200911 255.092478,68.2939356 257.046122,66.6416244 C258.997256,64.9868022 260.380878,62.9653578 261.1995,60.5722689 C262.020633,58.1816911 262.429944,55.7936244 262.429944,53.41058 C262.429944,48.8303133 261.3577,45.0360244 259.213211,42.0151578 C257.068722,38.9942911 253.646078,37.4851133 248.952811,37.4851133 Z M351.885264,37.1526422 C344.053109,37.1526422 337.710042,43.6991089 337.710042,51.7773533 C337.710042,59.8581089 344.053109,66.4070867 351.885264,66.4070867 C359.709887,66.4070867 366.052953,59.8581089 366.052953,51.7773533 C366.052953,43.6991089 359.709887,37.1526422 351.885264,37.1526422 Z M176.782724,35.9224489 C168.809947,35.9224489 164.377836,40.89696 162.881213,47.3781378 L162.881213,47.3781378 L189.601947,47.3781378 C189.471369,45.6931822 186.832191,35.9224489 176.782724,35.9224489 Z M75.8285244,-2.49084703e-14 C81.1370133,-2.49084703e-14 85.44608,4.0002 85.44608,8.93202222 C85.44608,13.8638444 81.1370133,17.8640444 75.8285244,17.8640444 C70.5175244,17.8640444 66.2084578,13.8638444 66.2084578,8.93202222 C66.2084578,4.0002 70.5175244,-2.49084703e-14 75.8285244,-2.49084703e-14 Z"></path>
            </g>
            <g id="Brand/Brandmark/Navy">
                <path d="M112,0 C112.552285,1.45285917e-15 113,0.44771525 113,1 L113,1 L113,112 C113,112.552285 112.552285,113 112,113 L112,113 L1,113 C0.44771525,113 6.76353751e-17,112.552285 0,112 L0,112 L0,1 C1.48667686e-15,0.44771525 0.44771525,1.01453063e-16 1,0 L1,0 Z M56.4997489,31.3888889 L25.11086,81.6111111 L87.8886378,81.6111111 L56.4997489,31.3888889 Z" id="Brand/Brandmark"></path>
            </g>
        </g>
    </g>
</svg>